# xmcd
#
# Track frame offsets:
#	150
#	11980
#	22025
#	32520
#	42865
#	55768
#	68054
#	82224
#	98149
#	107812
#	117709
#	128287
#	139702
#	150857
#	162095
#	171398
#	183416
#	193649
#	204743
#	214570
#	226793
#	237181
#	248711
#	260706
#
# Disc length: 3620 seconds
#
# Revision: 0
# Processed by: cddbd v1.5.2PL0 Copyright (c) Steve Scherf et al.
# Submitted via: EasyCDDAExtractor 16.0.1.1
#
DISCID=460e2218
DTITLE=Skeeter Davis - The End Of The World and Cloudy  With Occasional Tears
DYEAR=1963
DGENRE=Country
TTITLE0=The End Of The World
TTITLE1=Silver Threads And Golden Needles
TTITLE2=Mine Is A Lonely Life
TTITLE3=Once Upon A Time
TTITLE4=Why I'm Walkin'
TTITLE5=Don't Let Me Cross Over
TTITLE6=My Coloring Book
TTITLE7=(I Want To Go) Where Nobody Knows Me
TTITLE8=Keep Your Hands Off My Baby
TTITLE9=Something Precious
TTITLE10=Longing To Hold You Again
TTITLE11=He Called Me Baby
TTITLE12=I Will Follow Him
TTITLE13=Why  Why  Why
TTITLE14=I'm Saving My Love
TTITLE15=I Will
TTITLE16=Moonlight Promises
TTITLE17=Can't Get Used To Losing You
TTITLE18=Don't Let It Happen To Us
TTITLE19=Cloudy  With Occasional Tears
TTITLE20=You  You  You
TTITLE21=The Listened While You Said Goodbye
TTITLE22=It Was Only A Heart
TTITLE23=Somebody Loves You
EXTD=
EXTT0=
EXTT1=
EXTT2=
EXTT3=
EXTT4=
EXTT5=
EXTT6=
EXTT7=
EXTT8=
EXTT9=
EXTT10=
EXTT11=
EXTT12=
EXTT13=
EXTT14=
EXTT15=
EXTT16=
EXTT17=
EXTT18=
EXTT19=
EXTT20=
EXTT21=
EXTT22=
EXTT23=
PLAYORDER=
